PathFileType	4	(X/Y/Z)	D:\Share\Shared_Data\Ergonomics\Sit To Stand Pertubation\S1\Perturbed_NoHarness.trc
DataRate	CameraRate	NumFrames	NumMarkers	Units	OrigDataRate	OrigDataStartFrame	OrigNumFrames	
100	100	6	18	m	100	8599	221
Frame#	Time	L_ASIS			R_ASIS			R_Pelvis			V_Sacral			L_Pelvis			Clavical			R_Acromium			L_Acromium			Sternum			Torso			R_Thigh_Med			R_Thigh_Lat			R_Thigh			R_Shank_Med			R_Shank_Lat			R_Shank			R_Heel			R_Toe			
		X1	Y1	Z1	X2	Y2	Z2	X3	Y3	Z3	X4	Y4	Z4	X5	Y5	Z5	X6	Y6	Z6	X7	Y7	Z7	X8	Y8	Z8	X9	Y9	Z9	X10	Y10	Z10	X11	Y11	Z11	X12	Y12	Z12	X13	Y13	Z13	X14	Y14	Z14	X15	Y15	Z15	X16	Y16	Z16	X17	Y17	Z17	X18	Y18	Z18	

8599	85.98	0.43193384	0.90786621	-0.10031277	0.40455704	0.90057501	0.10410681	0.34451254	0.91102844	0.1340721	0.24162709	0.8999801	-0.014071624	0.347698	0.91078271	-0.15509906	0.42560452	1.2535752	0.0045519753	0.35932016	1.3240931	0.15316696	0.32155942	1.2880598	-0.19381808	0.40861945	1.2652037	0.1067087	0.42278687	1.2618082	-0.053651302	0.34131445	0.41801682	0.054093159	0.3644003	0.44256848	0.16774396	0.42944476	0.61185223	0.10761875	0.33974011	0.099128242	0.099253494	0.31732779	0.099475815	0.17944839	0.33414832	0.31112732	0.19216986	0.27098569	0.032209148	0.12465955	0.47709729	0.045808872	0.14137711
8600	85.99	0.43431317	0.90790167	-0.10071658	0.40825293	0.90061621	0.10304174	0.34475345	0.91104462	0.13395227	0.2443407	0.9002467	-0.014342555	0.35010788	0.91072607	-0.15534131	0.42585446	1.25396	0.0037693472	0.35939383	1.3241693	0.15251083	0.32119046	1.287788	-0.19442563	0.40897418	1.265496	0.10595566	0.42291537	1.2621237	-0.054471581	0.33985455	0.41823611	0.055065754	0.3626922	0.44275558	0.16867372	0.42992819	0.6112135	0.10797245	0.33950412	0.099330566	0.099426086	0.31708591	0.09945372	0.17960579	0.33283481	0.31117935	0.19280685	0.27098923	0.032226192	0.12465794	0.47709543	0.045788357	0.14139644
8601	86	0.43663852	0.90790857	-0.10108116	0.41175864	0.90058643	0.10199716	0.34515384	0.9109859	0.13381287	0.24696976	0.9004516	-0.014578504	0.35243292	0.91062421	-0.15561203	0.42611508	1.2542629	0.0029741054	0.35952048	1.3241951	0.15184096	0.32080881	1.2874283	-0.19503111	0.40936014	1.2657261	0.10518741	0.42304907	1.2623486	-0.055306145	0.33848529	0.41844748	0.055950993	0.36112857	0.44292847	0.16956876	0.43042563	0.61057715	0.10830643	0.33928632	0.099525116	0.099589294	0.31685873	0.099436279	0.17976096	0.33161426	0.31122571	0.19342039	0.27099454	0.032252205	0.12465879	0.47709265	0.045776081	0.14141917
8602	86.01	0.43891721	0.90789124	-0.10139138	0.41512872	0.90049109	0.10096244	0.34575702	0.91087573	0.13365514	0.24951764	0.90060211	-0.014783766	0.35468405	0.91048621	-0.15589967	0.42638641	1.2544954	0.0021718559	0.35969562	1.324182	0.15116144	0.32041687	1.2869913	-0.19563083	0.4097731	1.2659043	0.10440932	0.42318857	1.2624938	-0.056150288	0.33722369	0.41864862	0.056748859	0.35972369	0.44308679	0.17041725	0.43094611	0.60995135	0.10861736	0.33908929	0.099709915	0.099740898	0.31664874	0.09942437	0.17991223	0.33049866	0.31126801	0.19400182	0.27100186	0.032285343	0.12466049	0.47709119	0.045767994	0.14144423
8603	86.02	0.44115506	0.90785266	-0.10163519	0.41839182	0.90034015	0.099941811	0.34658719	0.91073212	0.13348108	0.25198715	0.90070465	-0.014963581	0.35687149	0.91032019	-0.15619379	0.42666864	1.2546681	0.0013684359	0.35991464	1.3241406	0.15047638	0.32001849	1.2864863	-0.19622124	0.41020892	1.26604	0.1036272	0.42333478	1.2625681	-0.056998878	0.3360882	0.4188374	0.057460621	0.35849036	0.44323019	0.17120853	0.43149915	0.60934387	0.1089033	0.33891568	0.09988298	0.099878738	0.31645844	0.099418694	0.1800576	0.32949939	0.31130737	0.19454298	0.27101141	0.032323906	0.12466166	0.47709302	0.045760571	0.14147057
8604	86.03	0.44335553	0.90779504	-0.10180489	0.42155383	0.90014648	0.098951233	0.34764926	0.91056891	0.13329286	0.25438062	0.90076489	-0.015123745	0.35900385	0.91013257	-0.15648605	0.42696213	1.2547903	0.00056973618	0.36017261	1.3240795	0.14978987	0.31961896	1.2859221	-0.19679913	0.41066315	1.2661412	0.10284698	0.4234888	1.2625808	-0.057846478	0.3350972	0.4190119	0.058088333	0.35743866	0.44335809	0.17193373	0.43209393	0.60876196	0.10916376	0.33876755	0.10004247	0.10000091	0.31628998	0.099419868	0.18019502	0.32862628	0.31134482	0.19503691	0.27102341	0.032366329	0.12466126	0.47709967	0.04575098	0.14149715
